<svg width="144" height="22" viewBox="0 0 144 22" fill="none" xmlns="http://www.w3.org/2000/svg">
<path d="M17.3601 19.0406L15.5201 18.0206C14.6168 18.2983 13.6667 18.3904 12.7268 18.2916C11.787 18.1927 10.8769 17.9048 10.0511 17.4453C9.22539 16.9857 8.5011 16.3639 7.92179 15.6173C7.34248 14.8706 6.92012 14.0146 6.68009 13.1006L4.84009 12.0806C4.96646 13.4875 5.43507 14.8421 6.20506 16.0263C6.97504 17.2106 8.02302 18.1885 9.25764 18.8749C10.4923 19.5612 11.876 19.9351 13.2883 19.964C14.7006 19.9929 16.0984 19.6758 17.3601 19.0406Z" fill="#FCFCFC"/>
<path fill-rule="evenodd" clip-rule="evenodd" d="M5.90002 7.08069C6.48009 6.02585 7.27347 5.10335 8.22964 4.37197C9.18581 3.64059 10.2838 3.11634 11.4537 2.83262C12.6236 2.5489 13.8398 2.51191 15.0248 2.72403C16.2098 2.93615 17.3376 3.39271 18.3364 4.06465C19.3353 4.73658 20.1833 5.60916 20.8263 6.62682C21.4694 7.64447 21.8935 8.7849 22.0717 9.97547C22.2498 11.166 22.178 12.3807 21.861 13.542C21.5439 14.7033 20.9885 15.7858 20.23 16.7207L23.56 18.5807L22.71 20.1007L1.27002 8.17069L2.12002 6.65069L5.30002 8.42069C5.46002 7.96069 5.66002 7.52069 5.90002 7.08069ZM18.78 15.9207L6.75002 9.2207C7.06177 8.221 7.592 7.30318 8.30229 6.53373C9.01258 5.76428 9.88515 5.16247 10.8568 4.77191C11.8284 4.38135 12.8747 4.21182 13.9199 4.27561C14.9652 4.33939 15.9831 4.63489 16.9 5.14069C17.8156 5.65172 18.6055 6.36083 19.212 7.21621C19.8185 8.0716 20.2262 9.05166 20.4055 10.0848C20.5847 11.1179 20.5308 12.1781 20.2479 13.1877C19.9649 14.1974 19.46 15.1311 18.77 15.9207H18.78Z" fill="#FCFCFC"/>
<path d="M32.7524 5.16669H34.484C35.2464 5.16669 35.8889 5.28105 36.4117 5.50975C36.9453 5.73846 37.3483 6.05973 37.6206 6.47358C37.8928 6.87654 38.029 7.35028 38.029 7.89482C38.029 8.35223 37.9418 8.75518 37.7676 9.10369C37.5933 9.4413 37.3701 9.71901 37.0978 9.93682C36.8255 10.1437 36.5369 10.2908 36.232 10.3779C36.8092 10.465 37.3047 10.6556 37.7186 10.9497C38.1433 11.2437 38.4646 11.614 38.6824 12.0605C38.9111 12.4961 39.0255 12.9862 39.0255 13.5308C39.0255 14.1406 38.8784 14.6797 38.5844 15.148C38.2903 15.6054 37.8547 15.9648 37.2775 16.2262C36.7112 16.4767 36.0251 16.6019 35.2192 16.6019H33.4059C33.4059 16.6019 33.4059 16.5529 33.4059 16.4549C33.4167 16.3569 33.4222 16.2589 33.4222 16.1609C33.4222 16.0628 33.4222 16.0138 33.4222 16.0138H35.1538C35.7201 16.0138 36.1993 15.9158 36.5914 15.7198C36.9834 15.5129 37.2829 15.2134 37.4899 14.8213C37.6968 14.4292 37.8003 13.9609 37.8003 13.4164C37.8003 12.8065 37.6805 12.311 37.4409 11.9298C37.2122 11.5487 36.9127 11.26 36.5424 11.064C36.1721 10.868 35.7691 10.7373 35.3335 10.6719C34.9088 10.5957 34.5004 10.5576 34.1083 10.5576V10.4106C34.3588 10.4106 34.6365 10.3833 34.9414 10.3289C35.2464 10.2744 35.5404 10.1655 35.8236 10.0022C36.1067 9.83881 36.3409 9.59921 36.526 9.28338C36.7112 8.95666 36.8038 8.53192 36.8038 8.00917C36.8038 7.51909 36.7112 7.09979 36.526 6.75129C36.3518 6.40279 36.085 6.14141 35.7256 5.96716C35.3771 5.78202 34.9414 5.68945 34.4187 5.68945H32.9158C32.9158 5.67856 32.8994 5.63499 32.8668 5.55876C32.845 5.47163 32.8178 5.38451 32.7851 5.29738C32.7633 5.21026 32.7524 5.16669 32.7524 5.16669ZM33.5529 5.16669V16.6019H32.491V5.16669H33.5529ZM32.54 15.4094V16.6019H31.2332L31.2495 16.4386C31.2713 16.4386 31.3039 16.4386 31.3475 16.4386C31.402 16.4386 31.4346 16.4386 31.4455 16.4386C31.7287 16.4386 31.9737 16.3406 32.1806 16.1445C32.3876 15.9376 32.491 15.6926 32.491 15.4094H32.54ZM32.54 6.35923H32.491C32.491 6.07607 32.3876 5.83647 32.1806 5.64044C31.9737 5.43352 31.7287 5.33005 31.4455 5.33005C31.4346 5.33005 31.402 5.33005 31.3475 5.33005C31.3039 5.33005 31.2713 5.33005 31.2495 5.33005L31.2332 5.16669H32.54V6.35923Z" fill="white"/>
<path d="M42.8307 5.16669V12.3546C42.8307 13.1387 42.9723 13.8303 43.2555 14.4292C43.5495 15.0282 43.9579 15.4965 44.4807 15.8341C45.0034 16.1609 45.6079 16.3242 46.294 16.3242C47.0237 16.3242 47.6608 16.1663 48.2053 15.8505C48.7498 15.5346 49.1746 15.099 49.4795 14.5436C49.7845 13.9773 49.9369 13.3184 49.9369 12.5669V5.16669H50.7047V12.5669C50.7047 13.4164 50.5196 14.1624 50.1493 14.805C49.7899 15.4366 49.278 15.9322 48.6137 16.2916C47.9494 16.6509 47.1761 16.8306 46.294 16.8306C45.3901 16.8306 44.595 16.6564 43.9089 16.3079C43.2337 15.9485 42.7055 15.453 42.3243 14.8213C41.954 14.1788 41.7689 13.4327 41.7689 12.5833V5.16669H42.8307ZM41.8179 5.16669V6.14686H41.7689C41.7689 5.90726 41.6818 5.71123 41.5075 5.55876C41.3442 5.40629 41.1427 5.33005 40.9031 5.33005C40.9031 5.33005 40.8595 5.33005 40.7724 5.33005C40.6853 5.33005 40.6417 5.33005 40.6417 5.33005V5.16669H41.8179ZM43.9579 5.16669V5.33005C43.9579 5.33005 43.9144 5.33005 43.8272 5.33005C43.7401 5.33005 43.6966 5.33005 43.6966 5.33005C43.457 5.33005 43.25 5.40629 43.0758 5.55876C42.9124 5.71123 42.8307 5.90726 42.8307 6.14686H42.7981V5.16669H43.9579ZM49.9859 5.16669V6.14686H49.9369C49.9369 5.90726 49.8498 5.71123 49.6756 5.55876C49.5122 5.40629 49.3107 5.33005 49.0711 5.33005C49.0711 5.33005 49.0276 5.33005 48.9404 5.33005C48.8533 5.33005 48.8097 5.33005 48.8097 5.33005V5.16669H49.9859ZM51.8319 5.16669V5.33005C51.8319 5.33005 51.7883 5.33005 51.7012 5.33005C51.6141 5.33005 51.5705 5.33005 51.5705 5.33005C51.3309 5.33005 51.124 5.40629 50.9498 5.55876C50.7864 5.71123 50.7047 5.90726 50.7047 6.14686H50.6721V5.16669H51.8319Z" fill="white"/>
<path d="M54.9433 5.16669H56.6749C57.4373 5.16669 58.0798 5.28105 58.6026 5.50975C59.1362 5.73846 59.5392 6.05973 59.8114 6.47358C60.0837 6.87654 60.2198 7.35028 60.2198 7.89482C60.2198 8.35223 60.1327 8.75518 59.9585 9.10369C59.7842 9.4413 59.561 9.71901 59.2887 9.93682C59.0164 10.1437 58.7278 10.2908 58.4229 10.3779C59.0001 10.465 59.4956 10.6556 59.9095 10.9497C60.3342 11.2437 60.6555 11.614 60.8733 12.0605C61.102 12.4961 61.2163 12.9862 61.2163 13.5308C61.2163 14.1406 61.0693 14.6797 60.7753 15.148C60.4812 15.6054 60.0456 15.9648 59.4684 16.2262C58.9021 16.4767 58.216 16.6019 57.41 16.6019H55.5967C55.5967 16.6019 55.5967 16.5529 55.5967 16.4549C55.6076 16.3569 55.6131 16.2589 55.6131 16.1609C55.6131 16.0628 55.6131 16.0138 55.6131 16.0138H57.3447C57.911 16.0138 58.3902 15.9158 58.7823 15.7198C59.1743 15.5129 59.4738 15.2134 59.6808 14.8213C59.8877 14.4292 59.9911 13.9609 59.9911 13.4164C59.9911 12.8065 59.8713 12.311 59.6317 11.9298C59.403 11.5487 59.1035 11.26 58.7333 11.064C58.363 10.868 57.96 10.7373 57.5244 10.6719C57.0997 10.5957 56.6913 10.5576 56.2992 10.5576V10.4106C56.5497 10.4106 56.8274 10.3833 57.1323 10.3289C57.4373 10.2744 57.7313 10.1655 58.0145 10.0022C58.2976 9.83881 58.5318 9.59921 58.7169 9.28338C58.9021 8.95666 58.9946 8.53192 58.9946 8.00917C58.9946 7.51909 58.9021 7.09979 58.7169 6.75129C58.5427 6.40279 58.2759 6.14141 57.9165 5.96716C57.568 5.78202 57.1323 5.68945 56.6096 5.68945H55.1067C55.1067 5.67856 55.0903 5.63499 55.0576 5.55876C55.0359 5.47163 55.0086 5.38451 54.976 5.29738C54.9542 5.21026 54.9433 5.16669 54.9433 5.16669ZM55.7438 5.16669V16.6019H54.6819V5.16669H55.7438ZM54.7309 15.4094V16.6019H53.424L53.4404 16.4386C53.4622 16.4386 53.4948 16.4386 53.5384 16.4386C53.5928 16.4386 53.6255 16.4386 53.6364 16.4386C53.9196 16.4386 54.1646 16.3406 54.3715 16.1445C54.5785 15.9376 54.6819 15.6926 54.6819 15.4094H54.7309ZM54.7309 6.35923H54.6819C54.6819 6.07607 54.5785 5.83647 54.3715 5.64044C54.1646 5.43352 53.9196 5.33005 53.6364 5.33005C53.6255 5.33005 53.5928 5.33005 53.5384 5.33005C53.4948 5.33005 53.4622 5.33005 53.4404 5.33005L53.424 5.16669H54.7309V6.35923Z" fill="white"/>
<path d="M67.8804 4.93799L72.7159 16.5039H71.3273L67.5537 6.48992L67.8804 4.93799ZM64.3682 15.4094C64.292 15.6272 64.2811 15.8124 64.3355 15.9648C64.39 16.1173 64.4771 16.2371 64.5969 16.3242C64.7276 16.4005 64.8583 16.4386 64.989 16.4386H65.136V16.6019H61.8524V16.4386C61.8524 16.4386 61.8797 16.4386 61.9341 16.4386C61.9777 16.4386 61.9995 16.4386 61.9995 16.4386C62.2499 16.4386 62.5059 16.3623 62.7673 16.2099C63.0395 16.0465 63.2628 15.7797 63.437 15.4094H64.3682ZM67.8804 4.93799L68.0275 6.08151L63.9271 16.5529H62.9469L67.129 6.6206C67.129 6.6206 67.1562 6.55526 67.2107 6.42457C67.276 6.28299 67.3468 6.11419 67.423 5.91815C67.5102 5.72212 67.5809 5.53153 67.6354 5.34639C67.7007 5.16125 67.7334 5.02511 67.7334 4.93799H67.8804ZM70.1838 12.1422V12.6323H65.0706V12.1422H70.1838ZM70.9189 15.4094H72.2585C72.4219 15.7797 72.6397 16.0465 72.9119 16.2099C73.1842 16.3623 73.4456 16.4386 73.6961 16.4386C73.6961 16.4386 73.7179 16.4386 73.7614 16.4386C73.805 16.4386 73.8268 16.4386 73.8268 16.4386V16.6019H70.1511V16.4386H70.2982C70.5051 16.4386 70.6902 16.3515 70.8536 16.1772C71.017 15.9921 71.0387 15.7361 70.9189 15.4094Z" fill="white"/>
<path d="M89.3283 11.8318L89.1323 14.3966C88.8491 14.8649 88.4897 15.2842 88.0541 15.6544C87.6293 16.0138 87.1229 16.3024 86.5348 16.5203C85.9576 16.7272 85.2933 16.8306 84.5418 16.8306C83.4092 16.8198 82.4018 16.5693 81.5196 16.0792C80.6375 15.5891 79.9459 14.903 79.445 14.0208C78.9549 13.1278 78.7098 12.0768 78.7098 10.868C78.7098 9.68089 78.9549 8.64628 79.445 7.76413C79.935 6.87109 80.6212 6.17953 81.5033 5.68945C82.3963 5.18847 83.4419 4.93799 84.6398 4.93799C85.4457 4.93799 86.17 5.0469 86.8125 5.26471C87.466 5.47163 88.0323 5.73301 88.5115 6.04884L88.8382 8.35223H88.6912C88.4516 7.39384 87.9615 6.66961 87.2209 6.17953C86.4804 5.67856 85.62 5.42807 84.6398 5.42807C83.6815 5.42807 82.8483 5.65678 82.1404 6.11419C81.4434 6.5607 80.8989 7.19237 80.5068 8.00917C80.1256 8.81508 79.9351 9.76257 79.9351 10.8516C79.9351 11.9407 80.1256 12.8937 80.5068 13.7105C80.8989 14.5273 81.438 15.1644 82.1241 15.6218C82.8211 16.0792 83.627 16.3188 84.5418 16.3406C85.3151 16.3406 86.0284 16.199 86.6818 15.9158C87.3462 15.6218 87.9016 15.148 88.3481 14.4946C88.7946 13.8303 89.0778 12.9427 89.1976 11.8318H89.3283Z" fill="white"/>
<path d="M93.4411 5.16669V16.6019H92.3793V5.16669H93.4411ZM97.8519 16.0955V16.6019H93.3921V16.0955H97.8519ZM98.8484 13.9555L97.9009 16.6019H95.1891L95.7772 16.0955C96.3544 16.0955 96.8227 16.0084 97.1821 15.8341C97.5524 15.649 97.8519 15.3931 98.0806 15.0663C98.3093 14.7396 98.5108 14.3693 98.685 13.9555H98.8484ZM92.4283 15.4094V16.6019H91.1214V16.4386C91.1214 16.4386 91.1541 16.4386 91.2194 16.4386C91.2957 16.4386 91.3338 16.4386 91.3338 16.4386C91.617 16.4386 91.8565 16.3406 92.0526 16.1445C92.2595 15.9376 92.3684 15.6926 92.3793 15.4094H92.4283ZM92.4283 6.35923H92.3793C92.3684 6.07607 92.2595 5.83647 92.0526 5.64044C91.8565 5.43352 91.617 5.33005 91.3338 5.33005C91.3338 5.33005 91.2957 5.33005 91.2194 5.33005C91.1541 5.33005 91.1214 5.33005 91.1214 5.33005V5.16669H92.4283V6.35923ZM93.3921 6.35923V5.16669H94.699V5.33005C94.6881 5.33005 94.65 5.33005 94.5847 5.33005C94.5193 5.33005 94.4867 5.33005 94.4867 5.33005C94.2035 5.33005 93.9585 5.43352 93.7515 5.64044C93.5555 5.83647 93.452 6.07607 93.4411 6.35923H93.3921Z" fill="white"/>
<path d="M105.179 4.93799L110.014 16.5039H108.626L104.852 6.48992L105.179 4.93799ZM101.667 15.4094C101.591 15.6272 101.58 15.8124 101.634 15.9648C101.689 16.1173 101.776 16.2371 101.895 16.3242C102.026 16.4005 102.157 16.4386 102.288 16.4386H102.435V16.6019H99.151V16.4386C99.151 16.4386 99.1782 16.4386 99.2327 16.4386C99.2762 16.4386 99.298 16.4386 99.298 16.4386C99.5485 16.4386 99.8044 16.3623 100.066 16.2099C100.338 16.0465 100.561 15.7797 100.736 15.4094H101.667ZM105.179 4.93799L105.326 6.08151L101.226 16.5529H100.246L104.428 6.6206C104.428 6.6206 104.455 6.55526 104.509 6.42457C104.575 6.28299 104.645 6.11419 104.722 5.91815C104.809 5.72212 104.88 5.53153 104.934 5.34639C104.999 5.16125 105.032 5.02511 105.032 4.93799H105.179ZM107.482 12.1422V12.6323H102.369V12.1422H107.482ZM108.218 15.4094H109.557C109.72 15.7797 109.938 16.0465 110.211 16.2099C110.483 16.3623 110.744 16.4386 110.995 16.4386C110.995 16.4386 111.016 16.4386 111.06 16.4386C111.104 16.4386 111.125 16.4386 111.125 16.4386V16.6019H107.45V16.4386H107.597C107.804 16.4386 107.989 16.3515 108.152 16.1772C108.316 15.9921 108.337 15.7361 108.218 15.4094Z" fill="white"/>
<path d="M115.045 4.93799C115.219 4.93799 115.404 4.94888 115.6 4.97066C115.807 4.99244 116.003 5.02511 116.188 5.06868C116.384 5.10135 116.558 5.13947 116.711 5.18303C116.874 5.2157 116.999 5.25382 117.087 5.29738V7.11069H116.94C116.94 6.58793 116.76 6.17953 116.4 5.88548C116.041 5.58054 115.605 5.42807 115.094 5.42807C114.495 5.42807 114.01 5.61866 113.64 5.99983C113.269 6.37012 113.084 6.80575 113.084 7.30672C113.084 7.51364 113.128 7.75868 113.215 8.04184C113.313 8.31411 113.487 8.57004 113.738 8.80964L116.956 11.7828C117.283 12.0877 117.5 12.4145 117.609 12.763C117.718 13.1115 117.773 13.4491 117.773 13.7758C117.773 14.6797 117.495 15.4149 116.94 15.9812C116.395 16.5475 115.654 16.8306 114.718 16.8306C114.456 16.8306 114.146 16.8034 113.787 16.749C113.438 16.6945 113.095 16.6019 112.758 16.4713C112.431 16.3297 112.159 16.15 111.941 15.9322C111.908 15.7579 111.892 15.5401 111.892 15.2787C111.892 15.0173 111.913 14.7451 111.957 14.4619C112.001 14.1679 112.061 13.901 112.137 13.6614H112.284C112.229 14.2169 112.3 14.7015 112.496 15.1154C112.692 15.5292 112.975 15.845 113.346 16.0628C113.727 16.2698 114.157 16.3623 114.636 16.3406C115.235 16.3079 115.747 16.101 116.172 15.7198C116.607 15.3277 116.825 14.805 116.825 14.1515C116.825 13.8357 116.771 13.5525 116.662 13.3021C116.553 13.0407 116.395 12.8174 116.188 12.6323L113.052 9.72446C112.725 9.41952 112.496 9.08735 112.365 8.72796C112.235 8.35767 112.169 8.01461 112.169 7.69878C112.169 7.24137 112.278 6.8003 112.496 6.37556C112.714 5.95082 113.035 5.60777 113.46 5.34639C113.896 5.07412 114.424 4.93799 115.045 4.93799ZM117.087 5.10135V5.44441H115.845V5.10135H117.087Z" fill="white"/>
<path d="M122.798 4.93799C122.972 4.93799 123.157 4.94888 123.353 4.97066C123.56 4.99244 123.756 5.02511 123.941 5.06868C124.137 5.10135 124.312 5.13947 124.464 5.18303C124.627 5.2157 124.753 5.25382 124.84 5.29738V7.11069H124.693C124.693 6.58793 124.513 6.17953 124.154 5.88548C123.794 5.58054 123.359 5.42807 122.847 5.42807C122.248 5.42807 121.763 5.61866 121.393 5.99983C121.023 6.37012 120.837 6.80575 120.837 7.30672C120.837 7.51364 120.881 7.75868 120.968 8.04184C121.066 8.31411 121.24 8.57004 121.491 8.80964L124.709 11.7828C125.036 12.0877 125.254 12.4145 125.363 12.763C125.471 13.1115 125.526 13.4491 125.526 13.7758C125.526 14.6797 125.248 15.4149 124.693 15.9812C124.148 16.5475 123.408 16.8306 122.471 16.8306C122.21 16.8306 121.899 16.8034 121.54 16.749C121.191 16.6945 120.848 16.6019 120.511 16.4713C120.184 16.3297 119.912 16.15 119.694 15.9322C119.661 15.7579 119.645 15.5401 119.645 15.2787C119.645 15.0173 119.667 14.7451 119.71 14.4619C119.754 14.1679 119.814 13.901 119.89 13.6614H120.037C119.983 14.2169 120.053 14.7015 120.249 15.1154C120.445 15.5292 120.729 15.845 121.099 16.0628C121.48 16.2698 121.91 16.3623 122.389 16.3406C122.988 16.3079 123.5 16.101 123.925 15.7198C124.361 15.3277 124.578 14.805 124.578 14.1515C124.578 13.8357 124.524 13.5525 124.415 13.3021C124.306 13.0407 124.148 12.8174 123.941 12.6323L120.805 9.72446C120.478 9.41952 120.249 9.08735 120.119 8.72796C119.988 8.35767 119.923 8.01461 119.923 7.69878C119.923 7.24137 120.032 6.8003 120.249 6.37556C120.467 5.95082 120.788 5.60777 121.213 5.34639C121.649 5.07412 122.177 4.93799 122.798 4.93799ZM124.84 5.10135V5.44441H123.598V5.10135H124.84Z" fill="white"/>
<path d="M129.751 5.16669V16.6019H128.689V5.16669H129.751ZM128.738 15.4094V16.6019H127.431V16.4386C127.431 16.4386 127.464 16.4386 127.529 16.4386C127.605 16.4386 127.643 16.4386 127.643 16.4386C127.926 16.4386 128.166 16.3406 128.362 16.1445C128.569 15.9376 128.678 15.6926 128.689 15.4094H128.738ZM128.738 6.35923H128.689C128.678 6.07607 128.569 5.83647 128.362 5.64044C128.166 5.43352 127.926 5.33005 127.643 5.33005C127.643 5.33005 127.605 5.33005 127.529 5.33005C127.464 5.33005 127.431 5.33005 127.431 5.33005V5.16669H128.738V6.35923ZM129.702 15.4094H129.751C129.761 15.6926 129.865 15.9376 130.061 16.1445C130.268 16.3406 130.513 16.4386 130.796 16.4386C130.796 16.4386 130.829 16.4386 130.894 16.4386C130.959 16.4386 130.998 16.4386 131.008 16.4386V16.6019H129.702V15.4094ZM129.702 6.35923V5.16669H131.008V5.33005C130.998 5.33005 130.959 5.33005 130.894 5.33005C130.829 5.33005 130.796 5.33005 130.796 5.33005C130.513 5.33005 130.268 5.43352 130.061 5.64044C129.865 5.83647 129.761 6.07607 129.751 6.35923H129.702Z" fill="white"/>
<path d="M143.25 11.8318L143.054 14.3966C142.771 14.8649 142.411 15.2842 141.976 15.6544C141.551 16.0138 141.045 16.3024 140.457 16.5203C139.879 16.7272 139.215 16.8306 138.464 16.8306C137.331 16.8198 136.324 16.5693 135.441 16.0792C134.559 15.5891 133.868 14.903 133.367 14.0208C132.877 13.1278 132.632 12.0768 132.632 10.868C132.632 9.68089 132.877 8.64628 133.367 7.76413C133.857 6.87109 134.543 6.17953 135.425 5.68945C136.318 5.18847 137.364 4.93799 138.562 4.93799C139.368 4.93799 140.092 5.0469 140.734 5.26471C141.388 5.47163 141.954 5.73301 142.433 6.04884L142.76 8.35223H142.613C142.373 7.39384 141.883 6.66961 141.143 6.17953C140.402 5.67856 139.542 5.42807 138.562 5.42807C137.603 5.42807 136.77 5.65678 136.062 6.11419C135.365 6.5607 134.821 7.19237 134.429 8.00917C134.047 8.81508 133.857 9.76257 133.857 10.8516C133.857 11.9407 134.047 12.8937 134.429 13.7105C134.821 14.5273 135.36 15.1644 136.046 15.6218C136.743 16.0792 137.549 16.3188 138.464 16.3406C139.237 16.3406 139.95 16.199 140.604 15.9158C141.268 15.6218 141.823 15.148 142.27 14.4946C142.716 13.8303 143 12.9427 143.119 11.8318H143.25Z" fill="white"/>
</svg>
