<svg width="33" height="41" viewBox="0 0 33 41" fill="none" xmlns="http://www.w3.org/2000/svg">
<g clip-path="url(#clip0_438_4330)">
<g clip-path="url(#clip1_438_4330)">
<mask id="mask0_438_4330" style="mask-type:luminance" maskUnits="userSpaceOnUse" x="1" y="9" width="31" height="31">
<path d="M31.2033 9.21631H1.33667V39.083H31.2033V9.21631Z" fill="white"/>
</mask>
<g mask="url(#mask0_438_4330)">
<path d="M3.57608 13.6951C4.81287 13.6951 5.8155 12.6925 5.8155 11.4557C5.8155 10.2189 4.81287 9.21631 3.57608 9.21631C2.33928 9.21631 1.33667 10.2189 1.33667 11.4557C1.33667 12.6925 2.33928 13.6951 3.57608 13.6951Z" fill="#FCFCFC"/>
<path d="M16.2678 13.6951C17.5046 13.6951 18.5071 12.6925 18.5071 11.4557C18.5071 10.2189 17.5046 9.21631 16.2678 9.21631C15.031 9.21631 14.0283 10.2189 14.0283 11.4557C14.0283 12.6925 15.031 13.6951 16.2678 13.6951Z" fill="#FCFCFC"/>
<path d="M28.9638 13.6951C30.2006 13.6951 31.2032 12.6925 31.2032 11.4557C31.2032 10.2189 30.2006 9.21631 28.9638 9.21631C27.727 9.21631 26.7244 10.2189 26.7244 11.4557C26.7244 12.6925 27.727 13.6951 28.9638 13.6951Z" fill="#FCFCFC"/>
<path d="M3.57608 26.3865C4.81287 26.3865 5.8155 25.384 5.8155 24.1472C5.8155 22.9104 4.81287 21.9077 3.57608 21.9077C2.33928 21.9077 1.33667 22.9104 1.33667 24.1472C1.33667 25.384 2.33928 26.3865 3.57608 26.3865Z" fill="#FCFCFC"/>
<path d="M3.57608 39.0833C4.81287 39.0833 5.8155 38.0807 5.8155 36.8439C5.8155 35.6071 4.81287 34.6045 3.57608 34.6045C2.33928 34.6045 1.33667 35.6071 1.33667 36.8439C1.33667 38.0807 2.33928 39.0833 3.57608 39.0833Z" fill="#FCFCFC"/>
<path d="M16.2678 26.3865C17.5046 26.3865 18.5071 25.384 18.5071 24.1472C18.5071 22.9104 17.5046 21.9077 16.2678 21.9077C15.031 21.9077 14.0283 22.9104 14.0283 24.1472C14.0283 25.384 15.031 26.3865 16.2678 26.3865Z" fill="#FCFCFC"/>
<path d="M16.2678 39.0833C17.5046 39.0833 18.5071 38.0807 18.5071 36.8439C18.5071 35.6071 17.5046 34.6045 16.2678 34.6045C15.031 34.6045 14.0283 35.6071 14.0283 36.8439C14.0283 38.0807 15.031 39.0833 16.2678 39.0833Z" fill="#FCFCFC"/>
<path d="M28.9638 26.3865C30.2006 26.3865 31.2032 25.384 31.2032 24.1472C31.2032 22.9104 30.2006 21.9077 28.9638 21.9077C27.727 21.9077 26.7244 22.9104 26.7244 24.1472C26.7244 25.384 27.727 26.3865 28.9638 26.3865Z" fill="#FCFCFC"/>
<path d="M28.9638 39.0833C30.2006 39.0833 31.2032 38.0807 31.2032 36.8439C31.2032 35.6071 30.2006 34.6045 28.9638 34.6045C27.727 34.6045 26.7244 35.6071 26.7244 36.8439C26.7244 38.0807 27.727 39.0833 28.9638 39.0833Z" fill="#FCFCFC"/>
</g>
</g>
</g>
<defs>
<clipPath id="clip0_438_4330">
<rect width="32" height="32" fill="white" transform="translate(0.27002 8.14941)"/>
</clipPath>
<clipPath id="clip1_438_4330">
<rect width="32" height="32" fill="white" transform="translate(0.27002 8.14941)"/>
</clipPath>
</defs>
</svg>
