<svg width="33" height="41" viewBox="0 0 33 41" fill="none" xmlns="http://www.w3.org/2000/svg">
<g clip-path="url(#clip0_438_4375)">
<g clip-path="url(#clip1_438_4375)">
<g clip-path="url(#clip2_438_4375)">
<mask id="mask0_438_4375" style="mask-type:luminance" maskUnits="userSpaceOnUse" x="0" y="9" width="33" height="31">
<path d="M32.8822 9.21631H0.930176V39.083H32.8822V9.21631Z" fill="white"/>
</mask>
<g mask="url(#mask0_438_4375)">
<path d="M2.10809 39.0829C1.45806 39.0829 0.930176 38.555 0.930176 37.9049V26.2175C0.930176 25.5674 1.45806 25.0396 2.10809 25.0396C2.75812 25.0396 3.28601 25.5674 3.28601 26.2175V37.9049C3.28601 38.555 2.75812 39.0829 2.10809 39.0829Z" fill="#FCFCFC"/>
<path d="M11.9763 39.083C11.3262 39.083 10.7983 38.5551 10.7983 37.9051V20.9431C10.7983 20.293 11.3262 19.7651 11.9763 19.7651C12.6263 19.7651 13.1542 20.293 13.1542 20.9431V37.9051C13.1542 38.5551 12.6263 39.083 11.9763 39.083Z" fill="#FCFCFC"/>
<path d="M21.8405 39.0829C21.1905 39.0829 20.6626 38.5551 20.6626 37.905V15.6686C20.6626 15.0186 21.1905 14.4907 21.8405 14.4907C22.4905 14.4907 23.0184 15.0186 23.0184 15.6686V37.905C23.0184 38.5551 22.4905 39.0829 21.8405 39.0829Z" fill="#FCFCFC"/>
<path d="M31.7043 39.083C31.0543 39.083 30.5264 38.5551 30.5264 37.9051V10.3942C30.5264 9.74419 31.0543 9.21631 31.7043 9.21631C32.3543 9.21631 32.8822 9.74419 32.8822 10.3942V37.9051C32.8822 38.5551 32.3543 39.083 31.7043 39.083Z" fill="#FCFCFC"/>
</g>
</g>
</g>
</g>
<defs>
<clipPath id="clip0_438_4375">
<rect width="32" height="32" fill="white" transform="translate(0.930176 8.14941)"/>
</clipPath>
<clipPath id="clip1_438_4375">
<rect width="32" height="32" fill="white" transform="translate(0.930176 8.14941)"/>
</clipPath>
<clipPath id="clip2_438_4375">
<rect width="32" height="32" fill="white" transform="translate(0.930176 8.14941)"/>
</clipPath>
</defs>
</svg>
