<svg width="33" height="41" viewBox="0 0 33 41" fill="none" xmlns="http://www.w3.org/2000/svg">
<g clip-path="url(#clip0_438_4355)">
<g clip-path="url(#clip1_438_4355)">
<g clip-path="url(#clip2_438_4355)">
<mask id="mask0_438_4355" style="mask-type:luminance" maskUnits="userSpaceOnUse" x="0" y="9" width="33" height="31">
<path d="M32.4174 9.21631H0.600098V39.083H32.4174V9.21631Z" fill="white"/>
</mask>
<g mask="url(#mask0_438_4355)">
<path d="M1.77305 34.4739C1.12575 34.4739 0.600098 33.9483 0.600098 33.301V15.003C0.600098 14.3557 1.12575 13.8301 1.77305 13.8301C2.42033 13.8301 2.94599 14.3557 2.94599 15.003V33.301C2.94599 33.9483 2.42033 34.4739 1.77305 34.4739Z" fill="#FCFCFC"/>
<path d="M11.5997 39.083C10.9524 39.083 10.4268 38.5573 10.4268 37.9101V10.3893C10.4268 9.74196 10.9524 9.21631 11.5997 9.21631C12.247 9.21631 12.7727 9.74196 12.7727 10.3893V37.9101C12.7727 38.5573 12.247 39.083 11.5997 39.083Z" fill="#FCFCFC"/>
<path d="M21.4219 32.7014C20.7747 32.7014 20.249 32.1757 20.249 31.5285V16.7711C20.249 16.1238 20.7747 15.5981 21.4219 15.5981C22.0693 15.5981 22.5949 16.1238 22.5949 16.7711V31.5241C22.5949 32.1715 22.0693 32.6971 21.4219 32.6971V32.7014Z" fill="#FCFCFC"/>
<path d="M31.2442 35.7381C30.5969 35.7381 30.0713 35.2125 30.0713 34.5651V13.7389C30.0713 13.0916 30.5969 12.5659 31.2442 12.5659C31.8916 12.5659 32.4172 13.0916 32.4172 13.7389V34.5651C32.4172 35.2125 31.8916 35.7381 31.2442 35.7381Z" fill="#FCFCFC"/>
</g>
</g>
</g>
</g>
<defs>
<clipPath id="clip0_438_4355">
<rect width="32" height="32" fill="white" transform="translate(0.600098 8.14941)"/>
</clipPath>
<clipPath id="clip1_438_4355">
<rect width="32" height="32" fill="white" transform="translate(0.600098 8.14941)"/>
</clipPath>
<clipPath id="clip2_438_4355">
<rect width="32" height="32" fill="white" transform="translate(0.600098 8.14941)"/>
</clipPath>
</defs>
</svg>
